# xmcd
#
# Track frame offsets:
#	150
#	16557
#	35904
#	53619
#	70201
#	90687
#	112442
#	134067
#	154356
#	175034
#
# Disc length: 2706 seconds
#
# Revision: 3
# Processed by: cddbd v1.5.1PL0 Copyright (c) Steve Scherf et al.
# Submitted via: dBpowerAMP V4.0
#
DISCID=8b0a900a
DTITLE=Buckshot hunters - Buckshot Hunters
DYEAR=1995
DGENRE=Blues
TTITLE0=Is it love
TTITLE1=Tightrope
TTITLE2=Cigarettes and wine
TTITLE3=So much to say
TTITLE4=Make it better
TTITLE5=Cure for an achin' heart
TTITLE6=No use for crying
TTITLE7=Think about your move
TTITLE8=Yout love makes me blind
TTITLE9=Your lies
EXTD=
EXTT0=
EXTT1=
EXTT2=
EXTT3=
EXTT4=
EXTT5=
EXTT6=
EXTT7=
EXTT8=
EXTT9=
PLAYORDER=
